<?xml version="1.0" encoding="UTF-8" standalone="no"?><!DOCTYPE svg PUBLIC "-//W3C//DTD SVG 1.1//EN" "http://www.w3.org/Graphics/SVG/1.1/DTD/svg11.dtd"><svg width="100%" height="100%" viewBox="0 0 64 64" version="1.1" xmlns="http://www.w3.org/2000/svg" xmlns:xlink="http://www.w3.org/1999/xlink" xml:space="preserve" xmlns:serif="http://www.serif.com/" style="fill-rule:evenodd;clip-rule:evenodd;stroke-linecap:round;stroke-linejoin:round;stroke-miterlimit:1.5;"><g id="Icon"><rect x="0" y="0" width="64" height="64" style="fill:#fdc400;"/><clipPath id="_clip1"><rect x="0" y="0" width="64" height="64"/></clipPath><g clip-path="url(#_clip1)"><path d="M12,12l25.117,0c1.722,-0 3.25,1.102 3.795,2.735c1.844,5.532 5.923,17.769 6.883,20.649c0.136,0.408 0.205,0.835 0.205,1.265c-0,0.751 -0,2.051 -0,3.351c0,2.209 -1.791,4 -4,4c-11.528,0 -44,0 -44,0" style="fill:none;stroke:#000;stroke-width:4px;"/><path d="M46.667,32l-10.667,0l-0,-20" style="fill:none;stroke:#000;stroke-width:4px;"/><path d="M28,44l-0,-24l-16,0l-0,24" style="fill:none;stroke:#000;stroke-width:4px;"/><path d="M20,20l-0,24" style="fill:none;stroke:#000;stroke-width:4px;"/><path d="M48,40l-0,0.002c-0,2.208 -1.79,3.998 -3.998,3.998c-3.491,-0 -8.002,-0 -8.002,-0l-0,-4l12,0Z" style="fill:none;stroke:#000;stroke-width:4px;"/><path d="M12,52l52,0" style="fill:none;stroke:#000;stroke-width:4px;"/></g></g></svg>
